Coordinates
version=1
nRows=13
nColumns=36
inDegrees=yes

Units are S.I. units (second, meters, Newtons, ...)
If the header above contains a line with 'inDegrees', this indicates whether rotational values are in degrees (yes) or radians (no).

endheader
time	pelvis_tilt	pelvis_list	pelvis_rotation	pelvis_tx	pelvis_ty	pelvis_tz	hip_flexion_r	hip_adduction_r	hip_rotation_r	knee_angle_r	knee_angle_r_beta	ankle_angle_r	subtalar_angle_r	mtp_angle_r	hip_flexion_l	hip_adduction_l	hip_rotation_l	knee_angle_l	knee_angle_l_beta	ankle_angle_l	subtalar_angle_l	mtp_angle_l	lumbar_extension	lumbar_bending	lumbar_rotation	arm_flex_r	arm_add_r	arm_rot_r	elbow_flex_r	pro_sup_r	arm_flex_l	arm_add_l	arm_rot_l	elbow_flex_l	pro_sup_l
      0.00000000	      6.17491521	     -0.36137502	      0.67830528	     -0.97316805	      1.31402731	     -0.06204404	    -10.25250087	     -1.04285879	     -3.77247709	      1.61642786	      0.02821199	      3.52072209	    -11.29775610	     -6.00703621	     -7.86121125	     -1.75927441	      4.84746588	      6.69572495	      0.11686245	     10.14643055	     -4.51070404	     -6.00703621	    -13.04479894	      3.20502498	     -2.12644892	      9.04040067	     -7.05411104	     24.82002419	     18.52377435	     72.04441944	      4.96049392	     -4.68299573	     19.70482176	     17.41013592	     63.52613388
      0.00416670	      4.66760025	      0.27016573	      1.52688370	     -0.97280470	      1.31421216	     -0.06209008	     -8.84854753	     -1.08125004	     -4.58491068	      0.91090802	      0.01589834	      4.87272648	     -7.89616451	     -6.53995527	     -7.15299432	     -1.05762942	      6.10069350	      4.55809149	      0.07955370	      9.46876243	     -3.31043383	     -6.53995527	    -11.06772164	      2.58767562	     -1.87334558	      7.92904434	     -6.10346598	     18.94334436	     18.02134182	     70.88572737	      4.88346225	     -4.23896686	     16.70167189	     17.65937082	     63.10439652
      0.00833330	      3.75762216	      0.77382404	      1.37735551	     -0.97307296	      1.31272779	     -0.06080567	     -7.92705015	     -1.45730831	     -5.04534559	      0.55307523	      0.00965298	      5.10568698	     -8.47627098	     -7.24970286	     -6.46554822	     -0.53073121	      5.43793906	      3.88148840	      0.06774475	      9.83098130	     -1.80696632	     -7.24970286	    -10.56428374	      1.83534605	     -0.96161454	      6.68862798	     -4.79625456	      7.07184715	     19.43725918	     84.27176777	      5.18392658	     -3.85783197	     13.01467518	     17.77744501	     67.82535685
      0.01250000	      4.39871265	      1.00244065	      1.39203974	     -0.97420677	      1.31395333	     -0.06070470	     -8.62000586	     -1.70572893	     -5.28827167	      0.41942319	      0.00732032	      5.28074217	     -8.48810617	     -7.25406435	     -7.75610723	     -0.24342645	      5.41249749	      2.53424737	      0.04423096	      9.29303899	     -1.43712163	     -7.25406435	    -11.72291092	      1.44750119	     -0.54430624	      6.80817588	     -4.60477078	      6.61459286	     19.35197478	     84.33083310	      5.65970235	     -3.88862732	     12.37378631	     17.79741953	     67.69255435
      0.01666670	      4.95166005	      1.01292663	      1.38073931	     -0.97472669	      1.31429202	     -0.06040475	     -9.25592433	     -1.69800178	     -5.24739602	      0.36144206	      0.00630835	      5.29746886	     -8.98111492	     -7.29294050	     -8.68026435	     -0.20013860	      5.54679459	      1.78104437	      0.03108509	      9.37611680	     -0.96897198	     -7.29294050	    -12.78072697	      1.38440720	     -0.24772521	      6.74398870	     -4.31484019	      4.15450960	     19.84951832	     85.01194964	      5.87498176	     -3.61022980	      9.59768766	     18.18497822	     67.40510835
      0.02083330	      5.28368630	      0.92137651	      1.28392199	     -0.97562915	      1.31112891	     -0.06058943	     -9.58401724	     -1.57662131	     -5.25801281	      0.34682630	      0.00605326	      5.48783118	     -9.32169175	     -7.29384186	     -9.19818430	     -0.25686641	      5.74840197	      1.36710929	      0.02386056	      9.43857863	     -0.79928841	     -7.29384186	    -13.39872955	      1.55660459	     -0.03775906	      6.99481651	     -4.45322456	      4.20951294	     19.77475260	     85.29363088	      6.09806885	     -3.51801802	      9.56409811	     18.21930602	     67.50946622
      0.02500000	      5.61466313	      0.90484135	      1.17953656	     -0.97570967	      1.31536736	     -0.06006534	     -9.97024318	     -1.56645771	     -4.99872323	      0.33453718	      0.00583878	      5.34475094	     -9.79447343	     -7.32182788	     -9.65522548	     -0.26472993	      5.78189158	      1.12249124	      0.01959117	      9.46500476	     -0.64251306	     -7.32182788	    -14.02469651	      1.61148968	      0.22705847	      7.18588953	     -4.53986822	      4.39194121	     19.80034809	     84.03835839	      6.36565081	     -3.39156532	      9.30469005	     18.25174476	     67.15422675
      0.02916670	      5.74122954	      0.86777216	      1.28167085	     -0.96989381	      1.31512417	     -0.05579861	    -10.29801155	     -1.36577078	     -4.95960605	      0.31732063	      0.00553829	      5.32846582	     -9.87667783	     -7.32248545	     -9.99024814	     -0.45994180	      5.96886498	      0.98863420	      0.01725492	      9.44121537	     -0.58333134	     -7.32248545	    -13.87378038	      1.47136461	      0.29965158	      6.94969304	     -4.37653860	      4.51228981	     19.72149757	     84.16021189	      6.18498178	     -3.50331274	      9.30151222	     18.25936515	     67.21423015
      0.03333330	      5.93274321	      0.87128277	      1.23043643	     -0.97643774	      1.31521797	     -0.05981750	    -10.53501177	     -1.38320896	     -4.85628370	      0.31377685	      0.00547644	      5.18069382	    -10.35019737	     -7.40178405	    -10.23674532	     -0.45045976	      6.30849207	      0.87478636	      0.01526790	      9.39840983	     -0.80854486	     -7.40178405	    -14.29077387	      1.50636906	      0.18130571	      7.50502561	     -4.61901564	      4.93883822	     19.25051280	     92.22357695	      6.19754793	     -3.36889653	      7.03507942	     18.44178839	     74.28149943
      0.03750000	      5.96346147	      0.86773216	      1.22431397	     -0.97689586	      1.31175850	     -0.06009206	    -10.55809209	     -1.38028025	     -4.83036248	      0.31105576	      0.00542895	      5.24961178	    -10.41437638	     -7.40187314	    -10.25595532	     -0.48152353	      6.38702060	      0.86213332	      0.01504706	      9.42741109	     -0.82252340	     -7.40187314	    -14.32026825	      1.52746153	      0.20748108	      7.66183871	     -4.71757663	      4.93930561	     19.23713771	     92.24202452	      6.26101832	     -3.32609223	      7.04759575	     18.43338136	     74.29933475
      0.04166670	      6.17572066	      0.78239100	      1.19083824	     -0.97682315	      1.30889166	     -0.05951356	    -10.74042242	     -1.26545455	     -4.63001038	      0.30541357	      0.00533047	      5.07846421	    -11.10186660	     -7.41276028	    -10.46384058	     -0.57630718	      6.82243220	      0.83153812	      0.01451308	      9.39338631	     -1.37986671	     -7.41276028	    -14.71551104	      1.67715084	      0.24455816	      7.99737988	     -4.93546133	      5.92615110	     19.03778933	     92.10946624	      6.38020180	     -3.34025750	      7.42770640	     18.53820118	     74.64980470
      0.04583330	      6.05389014	      0.69589187	      1.20450122	     -0.97710890	      1.30959153	     -0.05963110	    -10.57616866	     -1.17737897	     -4.50628215	      0.30449487	      0.00531444	      4.95688678	    -11.49795045	     -7.41957573	    -10.32855748	     -0.67804570	      6.86235114	      0.75506097	      0.01317830	      9.52594697	     -1.22874087	     -7.41957573	    -14.54155401	      1.80897998	      0.31410357	      7.96685472	     -5.03759203	      6.00039936	     19.21291257	     90.83599267	      6.35955695	     -3.25696943	      7.34051757	     18.50003750	     74.07836474
      0.05000000	      6.19382850	      0.63516800	      1.24510920	     -0.97692537	      1.30996386	     -0.05947356	    -10.68888603	     -1.08139752	     -4.69167321	      0.30283963	      0.00528555	      5.08171899	    -11.39701733	     -7.45712262	    -10.43370635	     -0.76704608	      7.23480904	      0.72603645	      0.01267173	      9.70589700	     -1.31381039	     -7.45712262	    -14.73372234	      1.90739652	      0.18300206	      8.20017663	     -5.13875433	      6.33761095	     19.08875614	     93.78604145	      6.34096290	     -3.29105579	      6.74398471	     18.56307601	     77.74018880
